<svg width="58" height="26" viewBox="0 0 58 26" fill="none" xmlns="http://www.w3.org/2000/svg">
<g filter="url(#filter0_d_601_477)">
<circle cx="47.5" cy="12.5" r="4.5" fill="#FF0070"/>
</g>
<path d="M3.44255 19H1.93055V6.436H6.50255C7.66655 6.436 8.55455 6.754 9.16655 7.39C9.77855 8.026 10.0845 8.914 10.0845 10.054C10.0845 11.074 9.82055 11.89 9.29255 12.502C8.76455 13.114 7.99655 13.468 6.98855 13.564L10.1925 19H8.50055L5.44055 13.636H3.44255V19ZM6.46655 12.358C7.10255 12.358 7.59455 12.202 7.94255 11.89C8.30255 11.566 8.48255 11.11 8.48255 10.522V9.586C8.48255 8.998 8.30255 8.548 7.94255 8.236C7.59455 7.912 7.10255 7.75 6.46655 7.75H3.44255V12.358H6.46655ZM12.7235 19V6.436H20.4635V7.75H14.2355V11.98H20.2475V13.294H14.2355V17.686H20.4635V19H12.7235ZM27.7105 19.216C26.1745 19.216 25.0285 18.658 24.2725 17.542C23.5285 16.426 23.1565 14.818 23.1565 12.718C23.1565 10.618 23.5285 9.01 24.2725 7.894C25.0285 6.778 26.1745 6.22 27.7105 6.22C28.2865 6.22 28.7845 6.298 29.2045 6.454C29.6245 6.61 29.9845 6.82 30.2845 7.084C30.5845 7.348 30.8365 7.648 31.0405 7.984C31.2445 8.308 31.4245 8.638 31.5805 8.974L30.2845 9.568C30.1765 9.292 30.0505 9.034 29.9065 8.794C29.7625 8.542 29.5885 8.326 29.3845 8.146C29.1925 7.954 28.9585 7.804 28.6825 7.696C28.4185 7.588 28.0945 7.534 27.7105 7.534C26.7145 7.534 25.9705 7.912 25.4785 8.668C24.9985 9.424 24.7585 10.432 24.7585 11.692V13.744C24.7585 15.004 24.9985 16.012 25.4785 16.768C25.9705 17.524 26.7145 17.902 27.7105 17.902C28.0945 17.902 28.4185 17.848 28.6825 17.74C28.9585 17.632 29.1925 17.488 29.3845 17.308C29.5885 17.116 29.7625 16.9 29.9065 16.66C30.0505 16.408 30.1765 16.144 30.2845 15.868L31.5805 16.462C31.4245 16.81 31.2445 17.146 31.0405 17.47C30.8365 17.794 30.5845 18.088 30.2845 18.352C29.9845 18.616 29.6245 18.826 29.2045 18.982C28.7845 19.138 28.2865 19.216 27.7105 19.216Z" fill="#FF0070"/>
<defs>
<filter id="filter0_d_601_477" x="37" y="2" width="21" height="21" filterUnits="userSpaceOnUse" color-interpolation-filters="sRGB">
<feFlood flood-opacity="0" result="BackgroundImageFix"/>
<feColorMatrix in="SourceAlpha" type="matrix" values="0 0 0 0 0 0 0 0 0 0 0 0 0 0 0 0 0 0 127 0" result="hardAlpha"/>
<feMorphology radius="2" operator="dilate" in="SourceAlpha" result="effect1_dropShadow_601_477"/>
<feOffset/>
<feGaussianBlur stdDeviation="2"/>
<feComposite in2="hardAlpha" operator="out"/>
<feColorMatrix type="matrix" values="0 0 0 0 1 0 0 0 0 0 0 0 0 0 0.439216 0 0 0 1 0"/>
<feBlend mode="normal" in2="BackgroundImageFix" result="effect1_dropShadow_601_477"/>
<feBlend mode="normal" in="SourceGraphic" in2="effect1_dropShadow_601_477" result="shape"/>
</filter>
</defs>
</svg>
